<svg xmlns="http://www.w3.org/2000/svg" width="471" height="473" viewBox="0 0 471 473" version="1.1"><path d="M 234.154 72.523 C 229.337 76.577, 226 84.346, 226 91.509 C 226 96.786, 226.618 98.838, 230.500 106.445 C 235.571 116.384, 236.027 120.140, 232.978 126.859 C 230.631 132.032, 230.539 133, 232.396 133 C 234.540 133, 239.552 126.740, 241.506 121.623 C 244.036 114.998, 243.139 108.570, 238.451 99.736 C 233.749 90.876, 233.256 84.165, 236.777 76.934 C 240.372 69.550, 239.477 68.045, 234.154 72.523 M 208.058 91.079 C 201.829 99.678, 201.707 104.516, 207.427 116.127 C 211.411 124.215, 211.502 124.844, 209.493 130.487 C 207.769 135.326, 208.802 136.765, 211.916 133.864 C 217.750 128.428, 218.576 119.235, 214 110.660 C 210.359 103.837, 210.014 97.310, 213 91.739 C 215.467 87.136, 215.467 87, 213.006 87 C 211.823 87, 209.811 88.659, 208.058 91.079 M 256.437 90.250 C 249.947 97.948, 249.525 105.931, 255.096 115.668 C 258.686 121.943, 259.159 126.859, 256.640 131.729 C 254.514 135.841, 256.245 137.042, 259.703 133.855 C 265.737 128.293, 266.566 120.045, 262 111 C 258.396 103.861, 258.033 97.275, 260.943 91.845 C 264.038 86.070, 260.899 84.959, 256.437 90.250 M 112.020 114.960 C 109.831 119.251, 109.222 122.624, 111.110 120 C 112.007 118.752, 112.089 118.808, 111.594 120.332 C 111.267 121.339, 110.993 122.689, 110.985 123.332 C 110.976 124.002, 110.556 123.861, 110 123 C 109.290 121.901, 109.027 122.638, 109.015 125.750 C 109.007 128.088, 109.338 130, 109.750 130 C 110.162 130, 110.566 131.012, 110.646 132.250 C 110.726 133.488, 111.278 136.300, 111.872 138.500 C 113.382 144.090, 113.280 149.679, 111.656 150.302 C 110.724 150.660, 110.436 150.156, 110.716 148.659 C 111.174 146.211, 106.909 137.500, 105.253 137.500 C 104.655 137.500, 103.792 137.090, 103.333 136.590 C 102.849 136.061, 103.024 135.981, 103.750 136.399 C 106.576 138.025, 104.609 135.268, 100.698 132.123 L 96.500 128.745 96.175 131.464 C 95.760 134.928, 96.502 135.648, 98.678 133.893 C 100.311 132.576, 100.312 132.635, 98.702 134.973 C 97.766 136.332, 97.007 138.132, 97.015 138.973 C 97.029 140.325, 97.147 140.328, 98.046 139 C 98.815 137.863, 98.920 138.110, 98.479 140.024 C 98.024 141.994, 98.700 143.419, 101.560 146.524 C 103.575 148.711, 104.631 149.600, 103.907 148.500 C 103.184 147.400, 104.087 147.963, 105.914 149.750 C 107.742 151.537, 109.563 153, 109.961 153 C 110.359 153, 111.407 154.463, 112.290 156.250 C 114.115 159.943, 115.342 171, 113.928 171 C 113.417 171, 113 170.523, 113 169.941 C 113 169.359, 112.502 169.190, 111.893 169.566 C 111.139 170.032, 111.013 169.533, 111.500 168 C 111.918 166.684, 111.827 165.989, 111.283 166.325 C 110.771 166.642, 110.385 165.918, 110.426 164.717 C 110.467 163.517, 109.975 162.526, 109.333 162.517 C 108.692 162.508, 107.792 162.090, 107.333 161.590 C 106.849 161.061, 107.024 160.981, 107.750 161.399 C 110.045 162.719, 109.036 160.408, 106.081 157.578 C 104.307 155.878, 102.678 155.081, 101.927 155.545 C 101.149 156.026, 100.946 155.897, 101.378 155.197 C 101.777 154.552, 100.793 153.427, 99.033 152.517 C 96.033 150.966, 96 150.977, 96 153.533 C 96 154.955, 96.385 155.880, 96.856 155.589 C 97.326 155.298, 97.486 156.239, 97.211 157.679 C 96.914 159.229, 97.105 160.053, 97.679 159.698 C 98.212 159.369, 98.615 160.090, 98.574 161.300 C 98.530 162.624, 99.028 163.391, 99.824 163.225 C 100.560 163.073, 100.850 163.434, 100.476 164.038 C 100.107 164.637, 100.635 166.044, 101.651 167.167 C 104.316 170.111, 111.757 174.268, 112.995 173.503 C 113.575 173.145, 113.967 173.222, 113.866 173.676 C 113.765 174.129, 114.042 175.325, 114.480 176.334 C 115.113 177.789, 115.464 177.892, 116.176 176.834 C 116.745 175.988, 116.861 176.781, 116.491 179 C 116.167 180.941, 116.543 184.584, 117.334 187.179 C 118.671 191.562, 118.647 191.849, 116.950 191.721 C 115.954 191.646, 115.367 191.215, 115.647 190.763 C 116.536 189.324, 111.167 181.300, 107.263 178.232 C 102.843 174.758, 96.994 171.615, 97.014 172.724 C 97.021 173.151, 97.309 174.551, 97.652 175.835 C 98.131 177.622, 98.494 177.857, 99.204 176.835 C 99.843 175.914, 99.940 176.180, 99.516 177.692 C 98.307 182.005, 106.099 191.294, 113.117 193.906 C 118.410 195.876, 119.423 196.545, 120.589 198.842 C 121.188 200.022, 121.901 200.766, 122.173 200.494 C 122.444 200.222, 122.689 201.237, 122.716 202.750 C 122.783 206.505, 130.248 219.595, 132.077 219.167 C 132.860 218.983, 133.178 219.155, 132.785 219.548 C 131.705 220.629, 133.936 224.157, 135.205 223.373 C 135.819 222.994, 136.029 223.144, 135.678 223.712 C 135.331 224.273, 135.937 225.538, 137.024 226.521 C 140.660 229.812, 139.200 225.835, 134.473 219.576 C 132.013 216.317, 130 213.253, 130 212.767 C 130 212.280, 129.601 212.129, 129.113 212.430 C 128.625 212.732, 128.288 212.196, 128.363 211.239 C 128.439 210.277, 127.908 209.623, 127.176 209.775 C 126.447 209.926, 126.093 209.658, 126.389 209.180 C 126.684 208.702, 126.043 205.986, 124.963 203.145 C 123.883 200.303, 123 197.323, 123 196.523 C 123 195.722, 124.986 192.830, 127.414 190.097 C 132.036 184.893, 134.568 177.617, 133.847 171.613 L 133.500 168.726 129.172 172.938 C 126.633 175.408, 125.068 177.734, 125.386 178.563 C 125.684 179.340, 125.422 179.869, 124.803 179.738 C 123.484 179.459, 122.241 183.143, 122.100 187.750 C 121.952 192.564, 120.226 191.690, 119.433 186.399 C 118.942 183.131, 118.473 182.189, 117.812 183.149 C 117.217 184.014, 117.126 182.880, 117.561 180 C 118.127 176.249, 119.202 174.559, 124.017 169.845 C 128.819 165.144, 129.979 163.323, 130.897 159.046 C 132.909 149.662, 132.438 149.221, 126.154 154.600 C 121.386 158.682, 119.496 161.838, 118.435 167.494 C 117.849 170.620, 117.554 171.020, 116.986 169.459 C 115.501 165.380, 114.858 156.206, 116.008 155.495 C 116.629 155.111, 116.897 154.174, 116.604 153.411 C 116.311 152.648, 116.618 152.131, 117.286 152.262 C 117.954 152.393, 118.393 151.954, 118.262 151.286 C 118.124 150.582, 118.652 150.313, 119.520 150.646 C 120.436 150.998, 122.524 149.712, 124.912 147.324 C 129.050 143.185, 131.345 137.138, 130.808 131.785 L 130.500 128.715 124.305 134.694 C 119.448 139.383, 117.858 141.680, 116.937 145.337 C 116.291 147.902, 115.439 150, 115.043 150 C 114.647 150, 114.363 146.672, 114.411 142.605 C 114.460 138.538, 114.805 135.395, 115.178 135.620 C 116.194 136.233, 117.238 132.195, 116.410 130.854 C 115.989 130.174, 116.125 129.959, 116.736 130.337 C 118.161 131.218, 119.189 125.209, 118.345 120.931 C 117.592 117.113, 115.229 111, 114.507 111 C 114.250 111, 113.132 112.782, 112.020 114.960 M 347.914 125.059 L 345.770 132.117 347.885 138.379 C 350.108 144.961, 350.849 158, 349 158 C 348.450 158, 348 156.861, 348 155.468 C 348 150.948, 345.373 146.481, 339.899 141.693 C 336.948 139.112, 334.251 137, 333.904 137 C 332.995 137, 334.824 146.334, 336.534 150.428 C 337.333 152.340, 339.648 155.163, 341.677 156.702 C 349.936 162.964, 351.017 164.454, 349.963 168.129 C 349.433 169.976, 349 172.926, 349 174.684 C 349 176.443, 348.550 178.160, 348 178.500 C 347.450 178.840, 347 178.165, 347 177 C 347 175.835, 346.640 175.104, 346.200 175.376 C 345.760 175.648, 345.400 174.275, 345.400 172.325 C 345.400 169.361, 344.559 167.977, 340.274 163.890 C 333.763 157.678, 332.538 157.610, 333.345 163.503 C 334.115 169.115, 337.664 176.325, 339.193 175.381 C 339.853 174.973, 340.030 175.143, 339.627 175.795 C 338.904 176.965, 342.802 179.631, 344.500 179.129 C 345.050 178.966, 345.190 179.144, 344.810 179.523 C 344.431 179.902, 344.996 181.153, 346.066 182.301 C 347.136 183.450, 347.812 185.089, 347.567 185.945 C 347.323 186.800, 346.543 190.088, 345.834 193.250 C 344.410 199.601, 343.042 200.777, 342.924 195.750 C 342.882 193.963, 342.275 190.925, 341.575 189 C 340.565 186.221, 339.808 185.538, 337.901 185.685 C 336.439 185.798, 336.184 185.671, 337.250 185.362 C 338.212 185.082, 339 184.459, 339 183.978 C 339 183.058, 332.786 178, 331.656 178 C 331.295 178, 331 180.052, 331 182.559 C 331 185.750, 331.346 186.904, 332.155 186.405 C 332.889 185.950, 333.037 186.132, 332.560 186.902 C 331.471 188.665, 332.822 193.228, 334.184 192.386 C 334.895 191.947, 335.029 192.143, 334.550 192.920 C 333.625 194.415, 337.848 199.212, 339.300 198.315 C 339.873 197.960, 340.001 198.190, 339.595 198.845 C 339.203 199.480, 339.368 200, 339.962 200 C 340.557 200, 341.524 201.056, 342.112 202.346 C 343.006 204.308, 342.572 205.902, 339.458 212.096 C 337.411 216.168, 333.995 221.937, 331.866 224.915 C 328.117 230.162, 327.440 232.539, 330.394 230.088 C 332.834 228.063, 339.728 216.833, 342.553 210.282 C 344.490 205.788, 346.013 203.719, 348.045 202.820 C 349.591 202.136, 350.663 201.263, 350.426 200.881 C 350.190 200.499, 350.785 200.391, 351.749 200.641 C 352.712 200.891, 354.400 200.366, 355.500 199.474 C 356.600 198.582, 356.868 198.180, 356.095 198.580 C 355.195 199.048, 354.937 198.911, 355.378 198.198 C 355.755 197.587, 356.664 197.317, 357.397 197.599 C 359.117 198.259, 364.276 192.161, 363.565 190.308 C 363.267 189.531, 363.410 189.135, 363.883 189.428 C 364.640 189.895, 368 182.725, 368 180.643 C 368 179.490, 356.807 185.901, 354.755 188.229 C 353.796 189.317, 353.303 190.681, 353.660 191.259 C 354.048 191.887, 353.826 192.011, 353.108 191.567 C 352.315 191.077, 351.363 192.211, 350.302 194.913 C 349.419 197.161, 348.367 199, 347.965 199 C 346.865 199, 346.060 195.081, 347.036 194.478 C 347.503 194.189, 348.184 191.953, 348.551 189.509 C 348.918 187.064, 349.839 184.549, 350.598 183.919 C 351.357 183.289, 351.688 182.305, 351.334 181.732 C 350.981 181.160, 351.102 180.945, 351.605 181.256 C 353.139 182.204, 359.225 179.172, 358.416 177.864 C 357.977 177.154, 358.123 176.958, 358.784 177.367 C 359.385 177.738, 360.283 177.317, 360.778 176.431 C 361.274 175.546, 362.089 174.934, 362.590 175.072 C 363.090 175.210, 364.680 173.113, 366.122 170.411 C 368.911 165.187, 370.519 159, 369.088 159 C 368.614 159, 366.050 160.463, 363.390 162.250 C 358.135 165.781, 353.626 171.584, 354.457 173.747 C 354.743 174.493, 354.576 174.856, 354.086 174.553 C 353.596 174.250, 352.724 175.352, 352.149 177.001 C 351.574 178.651, 350.615 180, 350.017 180 C 349.306 180, 349.240 179.394, 349.828 178.250 C 350.322 177.287, 351.012 173.951, 351.362 170.835 C 352.253 162.895, 352.590 162.324, 358.689 158.422 C 362.302 156.111, 364.610 153.785, 365.570 151.486 C 367.430 147.036, 369.365 138.032, 368.622 137.288 C 367.557 136.224, 365.114 139.132, 365.654 140.823 C 366.062 142.103, 365.962 142.183, 365.230 141.161 C 364.473 140.102, 363.500 140.500, 360.586 143.059 C 358.436 144.946, 357.124 146.881, 357.438 147.700 C 357.735 148.472, 357.557 148.844, 357.043 148.526 C 356.182 147.994, 354.019 153.853, 354.006 156.750 C 353.998 158.530, 352.329 158.299, 351.607 156.418 C 351.273 155.548, 351.071 152.511, 351.157 149.668 L 351.314 144.500 352 149.500 L 352.686 154.500 352.843 149.372 C 352.929 146.552, 353.675 142.629, 354.500 140.654 C 356.662 135.480, 356.351 129.851, 353.555 123.529 C 352.210 120.488, 350.873 118, 350.584 118 C 350.294 118, 349.093 121.176, 347.914 125.059 M 155.185 129.684 C 153.076 130.528, 151.934 134.695, 153.024 137.564 C 153.560 138.974, 155.902 142.337, 158.229 145.038 L 162.458 149.948 165.690 146.816 C 167.468 145.093, 168.681 143.293, 168.387 142.817 C 168.092 142.340, 168.363 142.074, 168.987 142.225 C 169.612 142.376, 171.086 140.872, 172.263 138.882 C 174.329 135.389, 174.343 135.172, 172.643 132.578 C 170.217 128.875, 168.283 128.386, 165.691 130.821 C 163.502 132.877, 160.777 133.181, 159.279 131.535 C 158.847 131.061, 159.169 131.059, 160 131.532 C 161.293 132.266, 161.311 132.151, 160.128 130.692 C 158.735 128.976, 157.557 128.735, 155.185 129.684 M 227.500 144.577 C 207.124 147.416, 198.046 149.926, 185.612 156.159 C 168.939 164.517, 155.623 175.939, 150.613 186.180 C 139.752 208.378, 149.930 225.313, 178.115 231.947 C 193.571 235.584, 215.383 237.304, 238.500 236.708 C 277.175 235.710, 299.489 230.105, 312.227 218.190 C 319.237 211.634, 321.251 207.218, 321.801 197.201 C 322.237 189.244, 322.106 188.599, 318.619 181.543 C 310.868 165.860, 291.317 153.614, 264.141 147.421 C 253.942 145.096, 234.567 143.593, 227.500 144.577 M 221.014 154.750 C 221.022 155.162, 223.160 156.675, 225.764 158.111 C 228.369 159.547, 234.927 164.722, 240.338 169.611 C 254.984 182.843, 264.079 190.143, 265.360 189.692 C 268.987 188.414, 262.142 173.185, 254.510 165.554 C 251.603 162.647, 246.403 158.858, 242.953 157.134 C 237.525 154.422, 235.626 154, 228.840 154 C 224.528 154, 221.006 154.338, 221.014 154.750 M 271.787 165.590 C 283.104 177.007, 289.739 183, 291.061 183 C 294.176 183, 288.966 171.204, 283.382 165.613 C 279.194 161.419, 271.739 157.543, 265.787 156.464 C 262.090 155.794, 262.117 155.835, 271.787 165.590 M 336.088 162.250 C 336.320 162.387, 338.083 163.850, 340.005 165.500 L 343.500 168.500 340.563 165.250 C 338.948 163.463, 337.185 162, 336.646 162 C 336.107 162, 335.856 162.113, 336.088 162.250 M 194 163.584 C 189.204 165.308, 183 168.459, 183 169.171 C 183 169.627, 184.364 170, 186.032 170 C 194.077 170, 207.649 176.732, 224.192 188.926 C 229.470 192.817, 234.286 196, 234.894 196 C 236.631 196, 236.193 192.030, 233.944 187.384 C 231.040 181.385, 219.789 171.142, 211.783 167.208 C 205.412 164.077, 197.252 162.414, 194 163.584 M 123.232 187 C 123.232 188.925, 123.438 189.713, 123.689 188.750 C 123.941 187.787, 123.941 186.213, 123.689 185.250 C 123.438 184.287, 123.232 185.075, 123.232 187 M 282.880 266.435 C 277.135 270.339, 276.500 273.084, 276.500 294 C 276.500 310.704, 276.694 312.829, 278.500 315.887 C 284.413 325.901, 300.338 325.393, 306.446 314.997 C 308.312 311.819, 308.500 309.856, 308.500 293.500 C 308.500 273.338, 307.808 270.809, 301.048 266.253 C 296.255 263.023, 287.777 263.108, 282.880 266.435 M 365.256 265.589 C 363.472 266.499, 360.997 268.876, 359.756 270.872 C 357.690 274.194, 357.472 275.925, 357.164 291.380 C 356.788 310.253, 357.640 314.365, 362.996 319.496 C 365.297 321.701, 367.153 322.431, 371.340 322.778 C 380.657 323.551, 387.588 318.493, 388.714 310.099 C 389.165 306.737, 388.948 306.218, 386.862 305.660 C 385.563 305.312, 383.262 305.021, 381.750 305.014 C 379.277 305.001, 379 305.348, 379 308.465 C 379 312.420, 376.592 314.320, 372.224 313.812 C 367.800 313.297, 367.031 310.206, 367.015 292.861 C 367.002 279.244, 367.234 276.933, 368.810 274.986 C 370.817 272.507, 375.113 272.019, 377.497 273.997 C 378.377 274.728, 379 276.906, 379 279.252 L 379 283.260 383.549 282.747 C 386.052 282.465, 388.356 281.978, 388.670 281.663 C 388.984 281.349, 388.928 279.003, 388.545 276.449 C 388.060 273.215, 386.847 270.713, 384.552 268.208 C 381.527 264.907, 380.730 264.583, 374.878 264.273 C 370.366 264.034, 367.551 264.419, 365.256 265.589 M 69 293.500 L 69 322 74 322 L 79 322 79 311 C 79 300.127, 79.027 300, 81.345 300 C 83.435 300, 84.100 301.198, 87.455 311 L 91.221 322 96.602 322 L 101.983 322 99.592 315.750 C 98.277 312.313, 96.223 306.990, 95.028 303.923 L 92.855 298.345 96.338 294.862 C 103.976 287.224, 101.694 270.277, 92.510 266.440 C 90.288 265.511, 85.501 265, 79.032 265 L 69 265 69 293.500 M 111.022 287.750 C 111.042 308.019, 111.253 310.961, 112.964 314.729 C 115.540 320.404, 119.937 322.993, 127 322.993 C 134.063 322.993, 138.460 320.404, 141.036 314.729 C 142.747 310.961, 142.958 308.019, 142.978 287.750 L 143 265 138 265 L 133 265 133 287.845 C 133 308.707, 132.841 310.834, 131.171 312.345 C 128.756 314.531, 124.716 314.448, 122.655 312.171 C 121.217 310.583, 121 307.364, 121 287.671 L 121 265 116 265 L 111 265 111.022 287.750 M 155 293.500 L 155 322 165.266 322 C 177.778 322, 181.394 320.508, 184.750 313.964 C 186.811 309.945, 186.998 308.228, 186.978 293.538 C 186.959 279.939, 186.667 276.863, 185.053 273.309 C 182.141 266.893, 177.580 265, 165.040 265 L 155 265 155 293.500 M 198 293.500 L 198 322 211 322 L 224 322 224 317.500 L 224 313 216 313 L 208 313 208 305.500 L 208 298 214.500 298 L 221 298 221 293.500 L 221 289 214.500 289 L 208 289 208 281 L 208 273 216 273 L 224 273 224 269 L 224 265 211 265 L 198 265 198 293.500 M 235 293.500 L 235 322 239.500 322 L 244 322 244 310.934 L 244 299.867 246.716 300.184 C 249.200 300.473, 249.746 301.399, 253.094 311 L 256.756 321.500 261.878 321.802 C 264.695 321.969, 267 321.900, 267 321.651 C 267 321.402, 264.993 316.005, 262.540 309.659 L 258.081 298.119 261.451 294.749 C 265.266 290.934, 266.681 285.024, 265.563 277.570 C 264.155 268.180, 258.835 265, 244.532 265 L 235 265 235 293.500 M 316.538 271.750 C 319.081 284.898, 326.054 318.526, 326.606 320.297 C 327.073 321.800, 328.096 322.046, 332.832 321.797 L 338.500 321.500 340.623 311 C 345.740 285.686, 349.071 269.336, 349.537 267.250 C 350.003 265.156, 349.700 265, 345.172 265 L 340.306 265 337.512 281.250 C 335.975 290.188, 334.201 299.975, 333.570 303 L 332.423 308.500 330.629 298 C 329.642 292.225, 327.921 282.438, 326.803 276.250 L 324.772 265 320.002 265 L 315.232 265 316.538 271.750 M 399 293.500 L 399 322 404 322 L 409 322 409 293.500 L 409 265 404 265 L 399 265 399 293.500 M 291 272.776 C 286.262 274.307, 286 275.395, 286 293.500 C 286 309.139, 286.172 310.846, 287.906 312.415 C 290.714 314.956, 296.114 314.177, 297.712 311 C 299.432 307.583, 299.450 279.431, 297.735 276.104 C 296.392 273.499, 293.376 272.009, 291 272.776 M 79 281.870 L 79 291 82.929 291 C 89.020 291, 91.938 286.715, 90.595 279.743 C 89.637 274.766, 88.624 273.825, 83.624 273.261 L 79 272.740 79 281.870 M 164.750 273.574 C 164.338 273.991, 164 278.083, 164 282.667 L 164 291 167 291 C 169.762 291, 170 291.278, 170 294.500 C 170 297.722, 169.762 298, 167 298 L 164 298 164 305.500 L 164 313 168.500 313 C 171.667 313, 173.593 312.407, 175 311 C 176.827 309.173, 177 307.667, 177 293.611 C 177 280.410, 176.750 277.912, 175.240 276.048 C 173.443 273.828, 166.188 272.117, 164.750 273.574 M 244.667 273.667 C 244.300 274.033, 244 278.083, 244 282.667 L 244 291 248.443 291 C 254.017 291, 256 288.579, 256 281.777 C 256 275.910, 253.568 273, 248.667 273 C 246.833 273, 245.033 273.300, 244.667 273.667" stroke="none" fill="#301f0f" fill-rule="evenodd"/><path d="M 0 236.502 L 0 473.004 235.750 472.752 L 471.500 472.500 471.752 236.250 L 472.004 0 236.002 0 L 0 0 0 236.502 M 0.492 237 C 0.492 367.075, 0.608 420.287, 0.750 355.250 C 0.892 290.212, 0.892 183.787, 0.750 118.750 C 0.608 53.712, 0.492 106.925, 0.492 237 M 234.154 72.523 C 229.337 76.577, 226 84.346, 226 91.509 C 226 96.786, 226.618 98.838, 230.500 106.445 C 235.571 116.384, 236.027 120.140, 232.978 126.859 C 230.631 132.032, 230.539 133, 232.396 133 C 234.540 133, 239.552 126.740, 241.506 121.623 C 244.036 114.998, 243.139 108.570, 238.451 99.736 C 233.749 90.876, 233.256 84.165, 236.777 76.934 C 240.372 69.550, 239.477 68.045, 234.154 72.523 M 208.058 91.079 C 201.829 99.678, 201.707 104.516, 207.427 116.127 C 211.411 124.215, 211.502 124.844, 209.493 130.487 C 207.769 135.326, 208.802 136.765, 211.916 133.864 C 217.750 128.428, 218.576 119.235, 214 110.660 C 210.359 103.837, 210.014 97.310, 213 91.739 C 215.467 87.136, 215.467 87, 213.006 87 C 211.823 87, 209.811 88.659, 208.058 91.079 M 256.437 90.250 C 249.947 97.948, 249.525 105.931, 255.096 115.668 C 258.686 121.943, 259.159 126.859, 256.640 131.729 C 254.514 135.841, 256.245 137.042, 259.703 133.855 C 265.737 128.293, 266.566 120.045, 262 111 C 258.396 103.861, 258.033 97.275, 260.943 91.845 C 264.038 86.070, 260.899 84.959, 256.437 90.250 M 112.020 114.960 C 109.831 119.251, 109.222 122.624, 111.110 120 C 112.007 118.752, 112.089 118.808, 111.594 120.332 C 111.267 121.339, 110.993 122.689, 110.985 123.332 C 110.976 124.002, 110.556 123.861, 110 123 C 109.290 121.901, 109.027 122.638, 109.015 125.750 C 109.007 128.088, 109.338 130, 109.750 130 C 110.162 130, 110.566 131.012, 110.646 132.250 C 110.726 133.488, 111.278 136.300, 111.872 138.500 C 113.382 144.090, 113.280 149.679, 111.656 150.302 C 110.724 150.660, 110.436 150.156, 110.716 148.659 C 111.174 146.211, 106.909 137.500, 105.253 137.500 C 104.655 137.500, 103.792 137.090, 103.333 136.590 C 102.849 136.061, 103.024 135.981, 103.750 136.399 C 106.576 138.025, 104.609 135.268, 100.698 132.123 L 96.500 128.745 96.175 131.464 C 95.760 134.928, 96.502 135.648, 98.678 133.893 C 100.311 132.576, 100.312 132.635, 98.702 134.973 C 97.766 136.332, 97.007 138.132, 97.015 138.973 C 97.029 140.325, 97.147 140.328, 98.046 139 C 98.815 137.863, 98.920 138.110, 98.479 140.024 C 98.024 141.994, 98.700 143.419, 101.560 146.524 C 103.575 148.711, 104.631 149.600, 103.907 148.500 C 103.184 147.400, 104.087 147.963, 105.914 149.750 C 107.742 151.537, 109.563 153, 109.961 153 C 110.359 153, 111.407 154.463, 112.290 156.250 C 114.115 159.943, 115.342 171, 113.928 171 C 113.417 171, 113 170.523, 113 169.941 C 113 169.359, 112.502 169.190, 111.893 169.566 C 111.139 170.032, 111.013 169.533, 111.500 168 C 111.918 166.684, 111.827 165.989, 111.283 166.325 C 110.771 166.642, 110.385 165.918, 110.426 164.717 C 110.467 163.517, 109.975 162.526, 109.333 162.517 C 108.692 162.508, 107.792 162.090, 107.333 161.590 C 106.849 161.061, 107.024 160.981, 107.750 161.399 C 110.045 162.719, 109.036 160.408, 106.081 157.578 C 104.307 155.878, 102.678 155.081, 101.927 155.545 C 101.149 156.026, 100.946 155.897, 101.378 155.197 C 101.777 154.552, 100.793 153.427, 99.033 152.517 C 96.033 150.966, 96 150.977, 96 153.533 C 96 154.955, 96.385 155.880, 96.856 155.589 C 97.326 155.298, 97.486 156.239, 97.211 157.679 C 96.914 159.229, 97.105 160.053, 97.679 159.698 C 98.212 159.369, 98.615 160.090, 98.574 161.300 C 98.530 162.624, 99.028 163.391, 99.824 163.225 C 100.560 163.073, 100.850 163.434, 100.476 164.038 C 100.107 164.637, 100.635 166.044, 101.651 167.167 C 104.316 170.111, 111.757 174.268, 112.995 173.503 C 113.575 173.145, 113.967 173.222, 113.866 173.676 C 113.765 174.129, 114.042 175.325, 114.480 176.334 C 115.113 177.789, 115.464 177.892, 116.176 176.834 C 116.745 175.988, 116.861 176.781, 116.491 179 C 116.167 180.941, 116.543 184.584, 117.334 187.179 C 118.671 191.562, 118.647 191.849, 116.950 191.721 C 115.954 191.646, 115.367 191.215, 115.647 190.763 C 116.536 189.324, 111.167 181.300, 107.263 178.232 C 102.843 174.758, 96.994 171.615, 97.014 172.724 C 97.021 173.151, 97.309 174.551, 97.652 175.835 C 98.131 177.622, 98.494 177.857, 99.204 176.835 C 99.843 175.914, 99.940 176.180, 99.516 177.692 C 98.307 182.005, 106.099 191.294, 113.117 193.906 C 118.410 195.876, 119.423 196.545, 120.589 198.842 C 121.188 200.022, 121.901 200.766, 122.173 200.494 C 122.444 200.222, 122.689 201.237, 122.716 202.750 C 122.783 206.505, 130.248 219.595, 132.077 219.167 C 132.860 218.983, 133.178 219.155, 132.785 219.548 C 131.705 220.629, 133.936 224.157, 135.205 223.373 C 135.819 222.994, 136.029 223.144, 135.678 223.712 C 135.331 224.273, 135.937 225.538, 137.024 226.521 C 140.660 229.812, 139.200 225.835, 134.473 219.576 C 132.013 216.317, 130 213.253, 130 212.767 C 130 212.280, 129.601 212.129, 129.113 212.430 C 128.625 212.732, 128.288 212.196, 128.363 211.239 C 128.439 210.277, 127.908 209.623, 127.176 209.775 C 126.447 209.926, 126.093 209.658, 126.389 209.180 C 126.684 208.702, 126.043 205.986, 124.963 203.145 C 123.883 200.303, 123 197.323, 123 196.523 C 123 195.722, 124.986 192.830, 127.414 190.097 C 132.036 184.893, 134.568 177.617, 133.847 171.613 L 133.500 168.726 129.172 172.938 C 126.633 175.408, 125.068 177.734, 125.386 178.563 C 125.684 179.340, 125.422 179.869, 124.803 179.738 C 123.484 179.459, 122.241 183.143, 122.100 187.750 C 121.952 192.564, 120.226 191.690, 119.433 186.399 C 118.942 183.131, 118.473 182.189, 117.812 183.149 C 117.217 184.014, 117.126 182.880, 117.561 180 C 118.127 176.249, 119.202 174.559, 124.017 169.845 C 128.819 165.144, 129.979 163.323, 130.897 159.046 C 132.909 149.662, 132.438 149.221, 126.154 154.600 C 121.386 158.682, 119.496 161.838, 118.435 167.494 C 117.849 170.620, 117.554 171.020, 116.986 169.459 C 115.501 165.380, 114.858 156.206, 116.008 155.495 C 116.629 155.111, 116.897 154.174, 116.604 153.411 C 116.311 152.648, 116.618 152.131, 117.286 152.262 C 117.954 152.393, 118.393 151.954, 118.262 151.286 C 118.124 150.582, 118.652 150.313, 119.520 150.646 C 120.436 150.998, 122.524 149.712, 124.912 147.324 C 129.050 143.185, 131.345 137.138, 130.808 131.785 L 130.500 128.715 124.305 134.694 C 119.448 139.383, 117.858 141.680, 116.937 145.337 C 116.291 147.902, 115.439 150, 115.043 150 C 114.647 150, 114.363 146.672, 114.411 142.605 C 114.460 138.538, 114.805 135.395, 115.178 135.620 C 116.194 136.233, 117.238 132.195, 116.410 130.854 C 115.989 130.174, 116.125 129.959, 116.736 130.337 C 118.161 131.218, 119.189 125.209, 118.345 120.931 C 117.592 117.113, 115.229 111, 114.507 111 C 114.250 111, 113.132 112.782, 112.020 114.960 M 347.914 125.059 L 345.770 132.117 347.885 138.379 C 350.108 144.961, 350.849 158, 349 158 C 348.450 158, 348 156.861, 348 155.468 C 348 150.948, 345.373 146.481, 339.899 141.693 C 336.948 139.112, 334.251 137, 333.904 137 C 332.995 137, 334.824 146.334, 336.534 150.428 C 337.333 152.340, 339.648 155.163, 341.677 156.702 C 349.936 162.964, 351.017 164.454, 349.963 168.129 C 349.433 169.976, 349 172.926, 349 174.684 C 349 176.443, 348.550 178.160, 348 178.500 C 347.450 178.840, 347 178.165, 347 177 C 347 175.835, 346.640 175.104, 346.200 175.376 C 345.760 175.648, 345.400 174.275, 345.400 172.325 C 345.400 169.361, 344.559 167.977, 340.274 163.890 C 333.763 157.678, 332.538 157.610, 333.345 163.503 C 334.115 169.115, 337.664 176.325, 339.193 175.381 C 339.853 174.973, 340.030 175.143, 339.627 175.795 C 338.904 176.965, 342.802 179.631, 344.500 179.129 C 345.050 178.966, 345.190 179.144, 344.810 179.523 C 344.431 179.902, 344.996 181.153, 346.066 182.301 C 347.136 183.450, 347.812 185.089, 347.567 185.945 C 347.323 186.800, 346.543 190.088, 345.834 193.250 C 344.410 199.601, 343.042 200.777, 342.924 195.750 C 342.882 193.963, 342.275 190.925, 341.575 189 C 340.565 186.221, 339.808 185.538, 337.901 185.685 C 336.439 185.798, 336.184 185.671, 337.250 185.362 C 338.212 185.082, 339 184.459, 339 183.978 C 339 183.058, 332.786 178, 331.656 178 C 331.295 178, 331 180.052, 331 182.559 C 331 185.750, 331.346 186.904, 332.155 186.405 C 332.889 185.950, 333.037 186.132, 332.560 186.902 C 331.471 188.665, 332.822 193.228, 334.184 192.386 C 334.895 191.947, 335.029 192.143, 334.550 192.920 C 333.625 194.415, 337.848 199.212, 339.300 198.315 C 339.873 197.960, 340.001 198.190, 339.595 198.845 C 339.203 199.480, 339.368 200, 339.962 200 C 340.557 200, 341.524 201.056, 342.112 202.346 C 343.006 204.308, 342.572 205.902, 339.458 212.096 C 337.411 216.168, 333.995 221.937, 331.866 224.915 C 328.117 230.162, 327.440 232.539, 330.394 230.088 C 332.834 228.063, 339.728 216.833, 342.553 210.282 C 344.490 205.788, 346.013 203.719, 348.045 202.820 C 349.591 202.136, 350.663 201.263, 350.426 200.881 C 350.190 200.499, 350.785 200.391, 351.749 200.641 C 352.712 200.891, 354.400 200.366, 355.500 199.474 C 356.600 198.582, 356.868 198.180, 356.095 198.580 C 355.195 199.048, 354.937 198.911, 355.378 198.198 C 355.755 197.587, 356.664 197.317, 357.397 197.599 C 359.117 198.259, 364.276 192.161, 363.565 190.308 C 363.267 189.531, 363.410 189.135, 363.883 189.428 C 364.640 189.895, 368 182.725, 368 180.643 C 368 179.490, 356.807 185.901, 354.755 188.229 C 353.796 189.317, 353.303 190.681, 353.660 191.259 C 354.048 191.887, 353.826 192.011, 353.108 191.567 C 352.315 191.077, 351.363 192.211, 350.302 194.913 C 349.419 197.161, 348.367 199, 347.965 199 C 346.865 199, 346.060 195.081, 347.036 194.478 C 347.503 194.189, 348.184 191.953, 348.551 189.509 C 348.918 187.064, 349.839 184.549, 350.598 183.919 C 351.357 183.289, 351.688 182.305, 351.334 181.732 C 350.981 181.160, 351.102 180.945, 351.605 181.256 C 353.139 182.204, 359.225 179.172, 358.416 177.864 C 357.977 177.154, 358.123 176.958, 358.784 177.367 C 359.385 177.738, 360.283 177.317, 360.778 176.431 C 361.274 175.546, 362.089 174.934, 362.590 175.072 C 363.090 175.210, 364.680 173.113, 366.122 170.411 C 368.911 165.187, 370.519 159, 369.088 159 C 368.614 159, 366.050 160.463, 363.390 162.250 C 358.135 165.781, 353.626 171.584, 354.457 173.747 C 354.743 174.493, 354.576 174.856, 354.086 174.553 C 353.596 174.250, 352.724 175.352, 352.149 177.001 C 351.574 178.651, 350.615 180, 350.017 180 C 349.306 180, 349.240 179.394, 349.828 178.250 C 350.322 177.287, 351.012 173.951, 351.362 170.835 C 352.253 162.895, 352.590 162.324, 358.689 158.422 C 362.302 156.111, 364.610 153.785, 365.570 151.486 C 367.430 147.036, 369.365 138.032, 368.622 137.288 C 367.557 136.224, 365.114 139.132, 365.654 140.823 C 366.062 142.103, 365.962 142.183, 365.230 141.161 C 364.473 140.102, 363.500 140.500, 360.586 143.059 C 358.436 144.946, 357.124 146.881, 357.438 147.700 C 357.735 148.472, 357.557 148.844, 357.043 148.526 C 356.182 147.994, 354.019 153.853, 354.006 156.750 C 353.998 158.530, 352.329 158.299, 351.607 156.418 C 351.273 155.548, 351.071 152.511, 351.157 149.668 L 351.314 144.500 352 149.500 L 352.686 154.500 352.843 149.372 C 352.929 146.552, 353.675 142.629, 354.500 140.654 C 356.662 135.480, 356.351 129.851, 353.555 123.529 C 352.210 120.488, 350.873 118, 350.584 118 C 350.294 118, 349.093 121.176, 347.914 125.059 M 155.185 129.684 C 153.076 130.528, 151.934 134.695, 153.024 137.564 C 153.560 138.974, 155.902 142.337, 158.229 145.038 L 162.458 149.948 165.690 146.816 C 167.468 145.093, 168.681 143.293, 168.387 142.817 C 168.092 142.340, 168.363 142.074, 168.987 142.225 C 169.612 142.376, 171.086 140.872, 172.263 138.882 C 174.329 135.389, 174.343 135.172, 172.643 132.578 C 170.217 128.875, 168.283 128.386, 165.691 130.821 C 163.502 132.877, 160.777 133.181, 159.279 131.535 C 158.847 131.061, 159.169 131.059, 160 131.532 C 161.293 132.266, 161.311 132.151, 160.128 130.692 C 158.735 128.976, 157.557 128.735, 155.185 129.684 M 227.500 144.577 C 207.124 147.416, 198.046 149.926, 185.612 156.159 C 168.939 164.517, 155.623 175.939, 150.613 186.180 C 139.752 208.378, 149.930 225.313, 178.115 231.947 C 193.571 235.584, 215.383 237.304, 238.500 236.708 C 277.175 235.710, 299.489 230.105, 312.227 218.190 C 319.237 211.634, 321.251 207.218, 321.801 197.201 C 322.237 189.244, 322.106 188.599, 318.619 181.543 C 310.868 165.860, 291.317 153.614, 264.141 147.421 C 253.942 145.096, 234.567 143.593, 227.500 144.577 M 221.014 154.750 C 221.022 155.162, 223.160 156.675, 225.764 158.111 C 228.369 159.547, 234.927 164.722, 240.338 169.611 C 254.984 182.843, 264.079 190.143, 265.360 189.692 C 268.987 188.414, 262.142 173.185, 254.510 165.554 C 251.603 162.647, 246.403 158.858, 242.953 157.134 C 237.525 154.422, 235.626 154, 228.840 154 C 224.528 154, 221.006 154.338, 221.014 154.750 M 271.787 165.590 C 283.104 177.007, 289.739 183, 291.061 183 C 294.176 183, 288.966 171.204, 283.382 165.613 C 279.194 161.419, 271.739 157.543, 265.787 156.464 C 262.090 155.794, 262.117 155.835, 271.787 165.590 M 336.088 162.250 C 336.320 162.387, 338.083 163.850, 340.005 165.500 L 343.500 168.500 340.563 165.250 C 338.948 163.463, 337.185 162, 336.646 162 C 336.107 162, 335.856 162.113, 336.088 162.250 M 194 163.584 C 189.204 165.308, 183 168.459, 183 169.171 C 183 169.627, 184.364 170, 186.032 170 C 194.077 170, 207.649 176.732, 224.192 188.926 C 229.470 192.817, 234.286 196, 234.894 196 C 236.631 196, 236.193 192.030, 233.944 187.384 C 231.040 181.385, 219.789 171.142, 211.783 167.208 C 205.412 164.077, 197.252 162.414, 194 163.584 M 123.232 187 C 123.232 188.925, 123.438 189.713, 123.689 188.750 C 123.941 187.787, 123.941 186.213, 123.689 185.250 C 123.438 184.287, 123.232 185.075, 123.232 187 M 282.880 266.435 C 277.135 270.339, 276.500 273.084, 276.500 294 C 276.500 310.704, 276.694 312.829, 278.500 315.887 C 284.413 325.901, 300.338 325.393, 306.446 314.997 C 308.312 311.819, 308.500 309.856, 308.500 293.500 C 308.500 273.338, 307.808 270.809, 301.048 266.253 C 296.255 263.023, 287.777 263.108, 282.880 266.435 M 365.256 265.589 C 363.472 266.499, 360.997 268.876, 359.756 270.872 C 357.690 274.194, 357.472 275.925, 357.164 291.380 C 356.788 310.253, 357.640 314.365, 362.996 319.496 C 365.297 321.701, 367.153 322.431, 371.340 322.778 C 380.657 323.551, 387.588 318.493, 388.714 310.099 C 389.165 306.737, 388.948 306.218, 386.862 305.660 C 385.563 305.312, 383.262 305.021, 381.750 305.014 C 379.277 305.001, 379 305.348, 379 308.465 C 379 312.420, 376.592 314.320, 372.224 313.812 C 367.800 313.297, 367.031 310.206, 367.015 292.861 C 367.002 279.244, 367.234 276.933, 368.810 274.986 C 370.817 272.507, 375.113 272.019, 377.497 273.997 C 378.377 274.728, 379 276.906, 379 279.252 L 379 283.260 383.549 282.747 C 386.052 282.465, 388.356 281.978, 388.670 281.663 C 388.984 281.349, 388.928 279.003, 388.545 276.449 C 388.060 273.215, 386.847 270.713, 384.552 268.208 C 381.527 264.907, 380.730 264.583, 374.878 264.273 C 370.366 264.034, 367.551 264.419, 365.256 265.589 M 69 293.500 L 69 322 74 322 L 79 322 79 311 C 79 300.127, 79.027 300, 81.345 300 C 83.435 300, 84.100 301.198, 87.455 311 L 91.221 322 96.602 322 L 101.983 322 99.592 315.750 C 98.277 312.313, 96.223 306.990, 95.028 303.923 L 92.855 298.345 96.338 294.862 C 103.976 287.224, 101.694 270.277, 92.510 266.440 C 90.288 265.511, 85.501 265, 79.032 265 L 69 265 69 293.500 M 111.022 287.750 C 111.042 308.019, 111.253 310.961, 112.964 314.729 C 115.540 320.404, 119.937 322.993, 127 322.993 C 134.063 322.993, 138.460 320.404, 141.036 314.729 C 142.747 310.961, 142.958 308.019, 142.978 287.750 L 143 265 138 265 L 133 265 133 287.845 C 133 308.707, 132.841 310.834, 131.171 312.345 C 128.756 314.531, 124.716 314.448, 122.655 312.171 C 121.217 310.583, 121 307.364, 121 287.671 L 121 265 116 265 L 111 265 111.022 287.750 M 155 293.500 L 155 322 165.266 322 C 177.778 322, 181.394 320.508, 184.750 313.964 C 186.811 309.945, 186.998 308.228, 186.978 293.538 C 186.959 279.939, 186.667 276.863, 185.053 273.309 C 182.141 266.893, 177.580 265, 165.040 265 L 155 265 155 293.500 M 198 293.500 L 198 322 211 322 L 224 322 224 317.500 L 224 313 216 313 L 208 313 208 305.500 L 208 298 214.500 298 L 221 298 221 293.500 L 221 289 214.500 289 L 208 289 208 281 L 208 273 216 273 L 224 273 224 269 L 224 265 211 265 L 198 265 198 293.500 M 235 293.500 L 235 322 239.500 322 L 244 322 244 310.934 L 244 299.867 246.716 300.184 C 249.200 300.473, 249.746 301.399, 253.094 311 L 256.756 321.500 261.878 321.802 C 264.695 321.969, 267 321.900, 267 321.651 C 267 321.402, 264.993 316.005, 262.540 309.659 L 258.081 298.119 261.451 294.749 C 265.266 290.934, 266.681 285.024, 265.563 277.570 C 264.155 268.180, 258.835 265, 244.532 265 L 235 265 235 293.500 M 316.538 271.750 C 319.081 284.898, 326.054 318.526, 326.606 320.297 C 327.073 321.800, 328.096 322.046, 332.832 321.797 L 338.500 321.500 340.623 311 C 345.740 285.686, 349.071 269.336, 349.537 267.250 C 350.003 265.156, 349.700 265, 345.172 265 L 340.306 265 337.512 281.250 C 335.975 290.188, 334.201 299.975, 333.570 303 L 332.423 308.500 330.629 298 C 329.642 292.225, 327.921 282.438, 326.803 276.250 L 324.772 265 320.002 265 L 315.232 265 316.538 271.750 M 399 293.500 L 399 322 404 322 L 409 322 409 293.500 L 409 265 404 265 L 399 265 399 293.500 M 291 272.776 C 286.262 274.307, 286 275.395, 286 293.500 C 286 309.139, 286.172 310.846, 287.906 312.415 C 290.714 314.956, 296.114 314.177, 297.712 311 C 299.432 307.583, 299.450 279.431, 297.735 276.104 C 296.392 273.499, 293.376 272.009, 291 272.776 M 79 281.870 L 79 291 82.929 291 C 89.020 291, 91.938 286.715, 90.595 279.743 C 89.637 274.766, 88.624 273.825, 83.624 273.261 L 79 272.740 79 281.870 M 164.750 273.574 C 164.338 273.991, 164 278.083, 164 282.667 L 164 291 167 291 C 169.762 291, 170 291.278, 170 294.500 C 170 297.722, 169.762 298, 167 298 L 164 298 164 305.500 L 164 313 168.500 313 C 171.667 313, 173.593 312.407, 175 311 C 176.827 309.173, 177 307.667, 177 293.611 C 177 280.410, 176.750 277.912, 175.240 276.048 C 173.443 273.828, 166.188 272.117, 164.750 273.574 M 244.667 273.667 C 244.300 274.033, 244 278.083, 244 282.667 L 244 291 248.443 291 C 254.017 291, 256 288.579, 256 281.777 C 256 275.910, 253.568 273, 248.667 273 C 246.833 273, 245.033 273.300, 244.667 273.667" stroke="none" fill="#eae1d0" fill-rule="evenodd"/></svg>